<svg xmlns="http://www.w3.org/2000/svg" xmlns:xlink="http://www.w3.org/1999/xlink" width="32.22" height="28.83" viewBox="0 0 32.22 28.83">
  <defs>
    <radialGradient id="radial-gradient" cx="0.824" cy="0.426" r="1.13" gradientTransform="matrix(-0.396, 0.197, -0.197, -0.396, 0.742, 0.831)" gradientUnits="objectBoundingBox">
      <stop offset="0" stop-color="#c83b3b"/>
      <stop offset="1" stop-color="#fb4949"/>
    </radialGradient>
  </defs>
  <g id="Group_16" data-name="Group 16" transform="translate(-60.27 -168.088)">
    <path id="Vector" d="M8.414.7A25.858,25.858,0,0,1,20.405.7a10.187,10.187,0,0,1,7.8,8.767,35.881,35.881,0,0,1,0,13.28,10.176,10.176,0,0,1-7.872,8.779,25.866,25.866,0,0,1-11.857,0c-4.094-.748-7.312-4.4-7.9-9A35.893,35.893,0,0,1,.578,9.7C1.165,5.119,4.352,1.48,8.414.7Z" transform="translate(60.27 196.917) rotate(-90)" fill="url(#radial-gradient)"/>
    <path id="Vector-2" data-name="Vector" d="M.342,8.334A.316.316,0,0,1,.166,8.28.368.368,0,0,1,.04,8.132a.42.42,0,0,1-.04-.2.413.413,0,0,1,.058-.194L4.61.169A.359.359,0,0,1,4.733.045a.311.311,0,0,1,.322,0,.359.359,0,0,1,.123.124l4.553,7.57a.413.413,0,0,1,.058.194.42.42,0,0,1-.04.2.368.368,0,0,1-.126.148.316.316,0,0,1-.176.055h-2.4v5.54a.406.406,0,0,1-.1.27.325.325,0,0,1-.242.112H3.087a.325.325,0,0,1-.242-.112.406.406,0,0,1-.1-.27V8.334Z" transform="translate(68.711 187.397) rotate(-90)" fill="#fff"/>
  </g>
</svg>
